<svg id="visual" viewBox="0 0 900 900" width="900" height="900" xmlns="http://www.w3.org/2000/svg" xmlns:xlink="http://www.w3.org/1999/xlink" version="1.1"><g transform="translate(429.91194873852027 453.603173229466)"><path d="M275.3 -381C347.3 -326.7 389.5 -233.5 423.8 -135.9C458.1 -38.2 484.4 63.9 467.5 163.1C450.7 262.3 390.7 358.7 305.5 405.4C220.4 452 110.2 449 10.4 434.7C-89.3 420.3 -178.7 394.6 -256.7 345.6C-334.7 296.6 -401.3 224.3 -423.5 141.1C-445.7 57.9 -423.5 -36.2 -396.7 -132.1C-370 -228 -338.7 -325.5 -271.8 -381.5C-204.9 -437.4 -102.5 -451.7 -0.4 -451.2C101.7 -450.6 203.4 -435.3 275.3 -381"></path></g></svg>